<svg xmlns="http://www.w3.org/2000/svg" width="24" height="30.716" viewBox="0 0 24 30.716"><defs><style>.a{fill:#fff;stroke-linecap:round;stroke-linejoin:round;}.b,.d{fill:#e6007e;}.c,.d{stroke:none;}</style></defs><g transform="translate(-320 -50)"><g class="a" transform="translate(320 50)"><path class="c" d="M 12 28.5439624786377 C 10.8745698928833 27.33838272094727 9.010381698608398 25.26867866516113 7.165460109710693 22.89859199523926 C 3.512029886245728 18.20520210266113 1.5 14.33467292785645 1.5 12.00000286102295 C 1.5 6.210282802581787 6.210279941558838 1.50000274181366 12 1.50000274181366 C 17.78972053527832 1.50000274181366 22.5 6.210282802581787 22.5 12.00000286102295 C 22.5 14.33467292785645 20.48797035217285 18.20520210266113 16.83453941345215 22.89859199523926 C 14.9896183013916 25.26867866516113 13.1254301071167 27.33838272094727 12 28.5439624786377 Z"/><path class="d" d="M 12 3.000001907348633 C 7.037380218505859 3.000001907348633 3 7.037382125854492 3 12.00000190734863 C 3 12.93189239501953 3.519510269165039 15.76735305786133 8.331520080566406 21.95458221435547 C 9.635773658752441 23.6315803527832 10.9521017074585 25.15753936767578 11.99999713897705 26.32319641113281 C 13.04794883728027 25.15748405456543 14.36422634124756 23.6315803527832 15.66847991943359 21.95458221435547 C 20.48048973083496 15.76735305786133 21 12.93189239501953 21 12.00000190734863 C 21 7.037382125854492 16.96261978149414 3.000001907348633 12 3.000001907348633 M 12 1.9073486328125e-06 C 18.62742042541504 1.9073486328125e-06 24 5.372583389282227 24 12.00000190734863 C 24 18.62741279602051 12 30.71612358093262 12 30.71612358093262 C 12 30.71612358093262 0 18.62741279602051 0 12.00000190734863 C 0 5.372583389282227 5.372579574584961 1.9073486328125e-06 12 1.9073486328125e-06 Z"/></g><circle class="b" cx="4" cy="4" r="4" transform="translate(328 58)"/></g></svg>